<?xml version="1.0" encoding="UTF-8" standalone="no"?><!DOCTYPE svg PUBLIC "-//W3C//DTD SVG 1.1//EN" "http://www.w3.org/Graphics/SVG/1.1/DTD/svg11.dtd"><svg width="100%" height="100%" viewBox="0 0 90 50" version="1.1" xmlns="http://www.w3.org/2000/svg" xmlns:xlink="http://www.w3.org/1999/xlink" xml:space="preserve" xmlns:serif="http://www.serif.com/" style="fill:white;fill-rule:evenodd;clip-rule:evenodd;stroke-linejoin:round;stroke-miterlimit:1.41421;"><g style="fill:white;"><clipPath id="_clip1"><path d="M92.356,25.47l-95.281,3.589l0,12.107l95.137,0l0.144,-15.696Z"/></clipPath><g clip-path="url(#_clip1)"><g><path d="M11.914,39.101l0.213,-0.03c1.235,-0.173 2.167,0.242 2.797,1.243c0.023,0.991 -0.071,1.501 -0.281,1.53l-0.074,0.011c-0.289,0.04 -0.796,-0.032 -1.521,-0.215l-1.409,0.054c-2.533,0.354 -4.521,1.696 -5.964,4.026c-0.604,1.113 -0.824,2.255 -0.661,3.426c0.091,0.652 0.624,0.91 1.599,0.774c0.588,-0.082 1.398,-0.385 2.429,-0.909l-0.009,-0.066l-0.074,0.01l-1.994,0.421c-0.018,-0.127 -0.227,-0.265 -0.628,-0.414l0.057,-0.076l-0.01,-0.073l-0.412,0.057l-0.019,-0.139l0.402,-0.124l-0.009,-0.066l-0.562,0.003l-0.019,-0.139l0.206,-0.029l-0.01,-0.066l-0.345,0.048l-0.01,-0.074l0.111,-0.225c-0.329,0.046 -0.499,0.022 -0.512,-0.071c-0.043,-0.308 2.72,-1.356 8.291,-3.143c0.534,-0.075 0.973,0.193 1.319,0.804l0.103,0.203c0.067,0.481 -0.188,1.036 -0.764,1.666c0.063,0.455 -0.966,1.546 -3.088,3.271c-1.004,0.755 -2.03,1.205 -3.078,1.352l-0.625,0.087c-2.083,0.291 -3.626,-0.583 -4.63,-2.621l-0.153,-0.615l-0.059,-0.419c-0.234,-1.676 0.783,-3.876 3.05,-6.601c1.739,-1.567 3.854,-2.524 6.343,-2.871Z" style="fill-rule:nonzero;"/><path d="M18.844,37.158l0.39,-0.054c1.195,0.258 1.839,0.725 1.934,1.401c-0.227,0.521 -1.062,3.148 -2.504,7.881l-0.393,0.991l4.02,-0.831l0.531,-0.007l0.39,-0.054l0.018,0.132l-0.191,0.027l0.028,0.198l0.389,-0.054l0.019,0.132l-0.609,0.415l0.186,0.371l0.39,-0.054l0.671,0.513c0.017,0.118 -1.236,0.535 -3.759,1.252c-1.057,0.372 -2.487,0.952 -4.291,1.738l-0.066,0.009c-0.24,0.034 -0.703,-0.259 -1.389,-0.877l-0.009,-0.066l0.058,-0.068l-0.076,-0.057l-0.091,-0.654c-0.031,-0.221 0.128,-0.51 0.478,-0.869c1.526,-4.095 2.558,-7.529 3.095,-10.301l-0.094,-0.19c0.201,-0.562 0.493,-0.87 0.875,-0.924Z" style="fill-rule:nonzero;"/><path d="M31.412,35.988l0.074,-0.011c0.465,-0.065 0.998,0.318 1.599,1.148l0.084,0.064l0.046,0.33c0.029,0.211 -0.298,0.442 -0.983,0.692l0.01,0.066c1.27,1.192 1.987,2.373 2.151,3.544l0.047,0.338c0.405,2.901 -0.584,4.94 -2.968,6.117c-0.821,0.345 -1.511,0.556 -2.069,0.634l-0.779,0.109c-2.196,0.306 -3.933,-0.595 -5.211,-2.704c-0.142,-0.011 -0.291,-0.402 -0.449,-1.174l-0.067,-0.478c-0.304,-2.176 0.998,-4.371 3.906,-6.585c1.863,-1.225 3.399,-1.921 4.609,-2.09Zm-5.813,8.92l0.009,0.066c0.109,0.779 0.667,1.158 1.673,1.137l0.566,-0.079c1.524,-0.212 2.815,-1.285 3.874,-3.216c0.137,-0.489 0.192,-1.116 0.165,-1.881c-0.132,-0.621 -0.254,-0.994 -0.366,-1.118l0.038,-0.208c-0.222,-0.658 -0.362,-0.983 -0.421,-0.975c-1.36,0.38 -2.837,1.503 -4.43,3.369c-0.856,1.098 -1.225,2.067 -1.108,2.905Z" style="fill-rule:nonzero;"/><path d="M42.813,34.081l0.14,-0.02c0.206,-0.029 0.503,0.092 0.89,0.363l0.075,0.057l0.067,-0.009l-0.029,0.281l0.182,0.814c0.028,0.74 -0.171,1.14 -0.597,1.2l-0.412,0.057c-1.784,0.249 -3.93,1.176 -6.438,2.78l0.018,0.133l0.066,-0.01c3.351,-0.188 5.238,0.013 5.66,0.604c0.344,0.141 0.548,0.44 0.612,0.896c0.087,1.516 0.01,2.291 -0.23,2.325c-0.921,0.913 -1.975,1.687 -3.16,2.322c-1.787,0.904 -4.26,1.994 -7.419,3.269l-0.075,-0.056l-0.011,-0.074l0.45,-0.265l-0.019,-0.14l-0.73,0.245l-0.011,-0.074c-0.014,-0.103 0.089,-0.187 0.31,-0.253l-0.019,-0.132l-0.206,0.028l-0.019,-0.139l0.14,-0.02l-0.01,-0.066l-0.431,-0.082l0.057,-0.075l-0.029,-0.206c-0.181,0.025 -0.281,-0.031 -0.3,-0.168l-0.057,0.075l-0.14,0.02l-0.009,-0.066l0.057,-0.076l-0.009,-0.066l-0.133,0.019c-0.013,-0.093 -0.088,-0.13 -0.225,-0.111l-0.009,-0.066c-0.032,-0.231 1.723,-1.128 5.267,-2.692c2.331,-1.19 3.666,-1.956 4.002,-2.297c-3.911,0.286 -5.907,0.145 -5.986,-0.423c-0.497,-0.231 -0.785,-0.63 -0.864,-1.198c-0.074,-0.525 0.115,-1.178 0.565,-1.96c3.014,-2.744 6.021,-4.326 9.019,-4.744Zm-10.531,13.872l0.009,0.067l0.139,-0.02l-0.009,-0.066l-0.139,0.019Z" style="fill-rule:nonzero;"/><path d="M50.788,32.967l0.14,-0.02c0.206,-0.028 0.502,0.092 0.89,0.363l0.075,0.057l0.067,-0.009l-0.029,0.281l0.181,0.814c0.029,0.74 -0.17,1.14 -0.596,1.2l-0.412,0.057c-1.784,0.249 -3.93,1.176 -6.438,2.78l0.018,0.133l0.066,-0.01c3.351,-0.188 5.238,0.013 5.66,0.604c0.344,0.142 0.548,0.44 0.612,0.896c0.087,1.517 0.01,2.292 -0.23,2.325c-0.921,0.913 -1.975,1.687 -3.16,2.322c-1.787,0.904 -4.26,1.994 -7.419,3.27l-0.075,-0.057l-0.011,-0.074l0.45,-0.265l-0.019,-0.14l-0.73,0.245l-0.011,-0.074c-0.014,-0.103 0.089,-0.187 0.31,-0.253l-0.019,-0.132l-0.206,0.029l-0.019,-0.14l0.14,-0.019l-0.01,-0.067l-0.431,-0.082l0.057,-0.075l-0.029,-0.206c-0.181,0.025 -0.281,-0.031 -0.3,-0.168l-0.057,0.076l-0.14,0.019l-0.009,-0.066l0.057,-0.075l-0.009,-0.067l-0.133,0.019c-0.013,-0.093 -0.088,-0.13 -0.225,-0.111l-0.009,-0.066c-0.032,-0.231 1.723,-1.128 5.267,-2.692c2.331,-1.19 3.665,-1.955 4.002,-2.297c-3.911,0.286 -5.907,0.145 -5.986,-0.423c-0.497,-0.23 -0.785,-0.63 -0.864,-1.198c-0.074,-0.524 0.115,-1.178 0.565,-1.96c3.014,-2.744 6.021,-4.325 9.019,-4.744Zm-10.531,13.873l0.009,0.066l0.139,-0.02l-0.009,-0.066l-0.139,0.02Z" style="fill-rule:nonzero;"/><path d="M54.808,33.2l0.793,-0.111c2.465,-0.344 4.157,0.141 5.075,1.457c0.258,0.243 0.409,0.515 0.451,0.814l0.009,0.066c0.103,0.74 -0.806,1.656 -2.726,2.748l0.009,0.067c1.089,0.717 1.664,1.288 1.723,1.715l0.056,0.397c0.15,1.073 -2.965,3.131 -9.344,6.176l-1.343,0.524l-0.083,-0.056l0.065,-0.076l-0.028,-0.198c-0.226,0.031 -0.344,0.003 -0.357,-0.086l-0.103,-0.255l0.632,-0.358l-0.009,-0.066l-0.066,0.009l-0.849,0.254l-0.019,-0.133c0.303,-0.087 0.448,-0.175 0.436,-0.263l-0.066,0.009l-0.379,0.188l-0.075,-0.057l-0.066,0.009l-0.388,0.122l-0.066,0.009l-0.01,-0.066l0.105,-0.217l-0.009,-0.066l-0.066,0.009l-0.322,0.113l-0.075,-0.057l-0.009,-0.066c0.366,-0.416 0.694,-0.644 0.983,-0.685l-0.225,-0.643c0.245,-0.963 1.448,-3.654 3.609,-8.072c-0.833,0.116 -1.418,-0.027 -1.754,-0.43c-0.178,-0.025 -0.398,-0.311 -0.659,-0.859c-0.075,-0.535 0.874,-1.004 2.845,-1.41l2.305,-0.456Zm0.206,3.89c1.268,-0.647 2.331,-1.267 3.187,-1.861c-0.019,-0.133 -0.538,-0.128 -1.557,0.015l-0.926,0.129c-0.491,0.988 -0.726,1.56 -0.704,1.717Zm-2.631,5.845l0.009,0.067c2.159,-1.071 3.666,-2.049 4.521,-2.932l-1.256,0.175c-1.637,0.229 -2.434,0.497 -2.391,0.806l-0.883,1.884Z" style="fill-rule:nonzero;"/><path d="M68.185,30.852l0.074,-0.01c0.465,-0.065 0.998,0.317 1.599,1.148l0.084,0.063l0.046,0.331c0.029,0.21 -0.298,0.441 -0.983,0.691l0.01,0.066c1.27,1.192 1.987,2.373 2.151,3.544l0.047,0.338c0.405,2.901 -0.584,4.94 -2.967,6.117c-0.822,0.345 -1.511,0.556 -2.07,0.634l-0.779,0.109c-2.195,0.307 -3.933,-0.595 -5.211,-2.704c-0.142,-0.011 -0.291,-0.402 -0.449,-1.174l-0.067,-0.478c-0.304,-2.176 0.998,-4.371 3.906,-6.585c1.863,-1.225 3.399,-1.921 4.609,-2.09Zm-5.813,8.92l0.009,0.066c0.109,0.779 0.667,1.158 1.673,1.138l0.566,-0.079c1.524,-0.213 2.815,-1.285 3.875,-3.217c0.136,-0.488 0.191,-1.116 0.164,-1.881c-0.132,-0.621 -0.254,-0.994 -0.366,-1.118l0.038,-0.208c-0.221,-0.658 -0.362,-0.983 -0.421,-0.975c-1.36,0.38 -2.837,1.503 -4.43,3.369c-0.856,1.099 -1.225,2.067 -1.108,2.905Z" style="fill-rule:nonzero;"/><path d="M79.587,28.945l0.139,-0.02c0.206,-0.029 0.503,0.092 0.89,0.363l0.076,0.057l0.066,-0.009l-0.028,0.281l0.181,0.814c0.028,0.74 -0.171,1.14 -0.597,1.2l-0.412,0.057c-1.783,0.249 -3.93,1.176 -6.438,2.78l0.018,0.133l0.067,-0.01c3.35,-0.188 5.237,0.013 5.659,0.604c0.345,0.142 0.549,0.44 0.612,0.896c0.087,1.517 0.011,2.292 -0.23,2.325c-0.921,0.913 -1.975,1.687 -3.16,2.322c-1.787,0.904 -4.26,1.994 -7.419,3.27l-0.075,-0.057l-0.011,-0.074l0.451,-0.265l-0.02,-0.14l-0.73,0.245l-0.01,-0.074c-0.015,-0.103 0.088,-0.187 0.309,-0.253l-0.019,-0.132l-0.205,0.029l-0.02,-0.14l0.14,-0.02l-0.009,-0.066l-0.432,-0.082l0.057,-0.075l-0.028,-0.206c-0.182,0.025 -0.282,-0.031 -0.301,-0.168l-0.057,0.076l-0.14,0.019l-0.009,-0.066l0.057,-0.076l-0.009,-0.066l-0.133,0.019c-0.013,-0.093 -0.088,-0.13 -0.225,-0.111l-0.009,-0.066c-0.032,-0.231 1.723,-1.128 5.267,-2.692c2.331,-1.19 3.666,-1.955 4.003,-2.297c-3.912,0.286 -5.908,0.145 -5.987,-0.423c-0.497,-0.23 -0.785,-0.63 -0.864,-1.198c-0.073,-0.525 0.115,-1.178 0.565,-1.96c3.014,-2.744 6.021,-4.325 9.02,-4.744Zm-10.532,13.873l0.009,0.066l0.14,-0.02l-0.01,-0.066l-0.139,0.02Z" style="fill-rule:nonzero;"/><path d="M87.562,27.831l0.139,-0.02c0.206,-0.028 0.503,0.093 0.89,0.363l0.076,0.057l0.066,-0.009l-0.029,0.281l0.182,0.814c0.028,0.74 -0.171,1.14 -0.597,1.2l-0.412,0.057c-1.783,0.25 -3.93,1.176 -6.438,2.781l0.018,0.132l0.066,-0.009c3.351,-0.189 5.238,0.013 5.66,0.603c0.345,0.142 0.549,0.44 0.612,0.896c0.087,1.517 0.011,2.292 -0.23,2.325c-0.921,0.913 -1.975,1.687 -3.16,2.323c-1.787,0.904 -4.26,1.993 -7.419,3.269l-0.075,-0.057l-0.011,-0.074l0.45,-0.265l-0.019,-0.139l-0.73,0.244l-0.011,-0.074c-0.014,-0.102 0.089,-0.187 0.31,-0.253l-0.019,-0.132l-0.205,0.029l-0.02,-0.14l0.14,-0.019l-0.01,-0.066l-0.431,-0.083l0.057,-0.075l-0.028,-0.206c-0.182,0.025 -0.282,-0.03 -0.301,-0.168l-0.057,0.076l-0.14,0.019l-0.009,-0.066l0.057,-0.075l-0.009,-0.066l-0.133,0.018c-0.013,-0.093 -0.088,-0.13 -0.225,-0.111l-0.009,-0.066c-0.032,-0.23 1.723,-1.127 5.267,-2.691c2.331,-1.19 3.666,-1.956 4.003,-2.298c-3.912,0.286 -5.908,0.146 -5.987,-0.423c-0.497,-0.23 -0.785,-0.63 -0.864,-1.198c-0.073,-0.524 0.115,-1.178 0.565,-1.96c3.014,-2.744 6.021,-4.325 9.02,-4.744Zm-10.532,13.873l0.009,0.066l0.14,-0.02l-0.01,-0.066l-0.139,0.02Z" style="fill-rule:nonzero;"/></g></g></g><g><path d="M12.341,23.376l0.213,-0.03c1.235,-0.172 2.167,0.242 2.796,1.243c0.024,0.991 -0.07,1.501 -0.28,1.531l-0.074,0.01c-0.289,0.04 -0.796,-0.031 -1.521,-0.215l-1.409,0.055c-2.533,0.354 -4.521,1.695 -5.965,4.025c-0.603,1.114 -0.824,2.256 -0.66,3.427c0.091,0.652 0.624,0.909 1.599,0.773c0.588,-0.082 1.398,-0.385 2.429,-0.908l-0.01,-0.067l-0.073,0.011l-1.995,0.421c-0.017,-0.128 -0.226,-0.266 -0.627,-0.415l0.057,-0.075l-0.01,-0.074l-0.412,0.058l-0.019,-0.14l0.402,-0.124l-0.009,-0.066l-0.562,0.004l-0.019,-0.14l0.206,-0.029l-0.01,-0.066l-0.345,0.049l-0.01,-0.074l0.11,-0.225c-0.328,0.046 -0.498,0.022 -0.511,-0.071c-0.044,-0.309 2.72,-1.357 8.29,-3.144c0.535,-0.075 0.974,0.194 1.319,0.805l0.104,0.203c0.067,0.48 -0.188,1.035 -0.764,1.665c0.063,0.456 -0.966,1.546 -3.088,3.272c-1.004,0.754 -2.03,1.205 -3.078,1.351l-0.625,0.088c-2.083,0.29 -3.626,-0.583 -4.63,-2.621l-0.153,-0.616l-0.059,-0.419c-0.234,-1.675 0.783,-3.876 3.05,-6.6c1.739,-1.567 3.854,-2.524 6.343,-2.872Z" style="fill-rule:nonzero;"/><path d="M19.271,21.434l0.39,-0.054c1.195,0.257 1.839,0.724 1.934,1.401c-0.227,0.521 -1.062,3.148 -2.504,7.88l-0.394,0.992l4.021,-0.831l0.531,-0.007l0.389,-0.054l0.019,0.132l-0.191,0.027l0.028,0.198l0.389,-0.054l0.019,0.132l-0.609,0.415l0.186,0.371l0.39,-0.055l0.671,0.514c0.016,0.117 -1.237,0.535 -3.759,1.252c-1.057,0.372 -2.488,0.951 -4.291,1.738l-0.066,0.009c-0.24,0.034 -0.703,-0.259 -1.389,-0.878l-0.009,-0.066l0.057,-0.068l-0.075,-0.057l-0.091,-0.654c-0.031,-0.22 0.128,-0.51 0.478,-0.868c1.526,-4.095 2.558,-7.529 3.095,-10.302l-0.094,-0.189c0.201,-0.563 0.493,-0.871 0.875,-0.924Z" style="fill-rule:nonzero;"/><path d="M31.839,20.263l0.074,-0.01c0.465,-0.065 0.998,0.318 1.599,1.148l0.083,0.063l0.047,0.331c0.029,0.211 -0.298,0.441 -0.983,0.692l0.009,0.066c1.271,1.191 1.988,2.373 2.151,3.544l0.048,0.338c0.405,2.901 -0.584,4.94 -2.968,6.117c-0.821,0.344 -1.511,0.556 -2.069,0.634l-0.779,0.108c-2.196,0.307 -3.933,-0.594 -5.212,-2.704c-0.141,-0.01 -0.29,-0.401 -0.448,-1.174l-0.067,-0.477c-0.304,-2.176 0.998,-4.371 3.906,-6.586c1.862,-1.224 3.399,-1.921 4.609,-2.09Zm-5.813,8.92l0.009,0.066c0.109,0.779 0.667,1.159 1.673,1.138l0.566,-0.079c1.524,-0.213 2.815,-1.285 3.874,-3.216c0.137,-0.489 0.192,-1.116 0.165,-1.882c-0.132,-0.621 -0.254,-0.993 -0.366,-1.118l0.038,-0.207c-0.222,-0.659 -0.362,-0.984 -0.421,-0.976c-1.361,0.38 -2.837,1.503 -4.43,3.369c-0.856,1.099 -1.225,2.067 -1.108,2.905Z" style="fill-rule:nonzero;"/><path d="M43.24,18.356l0.14,-0.019c0.206,-0.029 0.502,0.092 0.89,0.362l0.075,0.057l0.066,-0.009l-0.028,0.281l0.181,0.814c0.029,0.741 -0.17,1.141 -0.596,1.2l-0.412,0.058c-1.784,0.249 -3.93,1.176 -6.438,2.78l0.018,0.132l0.066,-0.009c3.351,-0.188 5.238,0.013 5.66,0.603c0.344,0.142 0.548,0.441 0.612,0.896c0.087,1.517 0.01,2.292 -0.23,2.326c-0.921,0.913 -1.975,1.687 -3.16,2.322c-1.787,0.904 -4.26,1.994 -7.419,3.269l-0.076,-0.057l-0.01,-0.073l0.45,-0.266l-0.019,-0.139l-0.73,0.244l-0.011,-0.073c-0.014,-0.103 0.089,-0.188 0.31,-0.253l-0.019,-0.133l-0.206,0.029l-0.019,-0.14l0.139,-0.019l-0.009,-0.066l-0.431,-0.082l0.057,-0.076l-0.029,-0.206c-0.181,0.026 -0.281,-0.03 -0.3,-0.167l-0.057,0.075l-0.14,0.019l-0.009,-0.066l0.057,-0.075l-0.01,-0.066l-0.132,0.018c-0.013,-0.093 -0.088,-0.13 -0.225,-0.111l-0.009,-0.066c-0.033,-0.23 1.723,-1.127 5.266,-2.691c2.332,-1.19 3.666,-1.956 4.003,-2.298c-3.911,0.287 -5.907,0.146 -5.986,-0.423c-0.497,-0.23 -0.785,-0.629 -0.864,-1.198c-0.074,-0.524 0.115,-1.177 0.565,-1.96c3.014,-2.744 6.02,-4.325 9.019,-4.744Z" style="fill-rule:nonzero;"/><path d="M51.215,17.242l0.14,-0.019c0.206,-0.029 0.502,0.092 0.89,0.363l0.075,0.057l0.066,-0.01l-0.028,0.282l0.181,0.814c0.029,0.74 -0.17,1.14 -0.596,1.199l-0.412,0.058c-1.784,0.249 -3.93,1.176 -6.438,2.78l0.018,0.132l0.066,-0.009c3.351,-0.188 5.238,0.013 5.66,0.603c0.344,0.142 0.548,0.441 0.612,0.897c0.087,1.516 0.01,2.291 -0.23,2.325c-0.921,0.913 -1.975,1.687 -3.16,2.322c-1.787,0.904 -4.26,1.994 -7.419,3.269l-0.076,-0.057l-0.01,-0.073l0.45,-0.265l-0.019,-0.14l-0.731,0.244l-0.01,-0.073c-0.014,-0.103 0.089,-0.187 0.31,-0.253l-0.019,-0.132l-0.206,0.028l-0.019,-0.139l0.139,-0.02l-0.009,-0.066l-0.431,-0.082l0.057,-0.076l-0.029,-0.205c-0.181,0.025 -0.281,-0.031 -0.3,-0.168l-0.057,0.075l-0.14,0.02l-0.009,-0.066l0.057,-0.076l-0.01,-0.066l-0.132,0.018c-0.013,-0.093 -0.088,-0.13 -0.225,-0.11l-0.009,-0.067c-0.033,-0.23 1.723,-1.127 5.266,-2.691c2.332,-1.19 3.666,-1.956 4.003,-2.298c-3.911,0.287 -5.907,0.146 -5.986,-0.422c-0.497,-0.231 -0.785,-0.63 -0.864,-1.199c-0.074,-0.524 0.115,-1.177 0.565,-1.959c3.014,-2.744 6.02,-4.326 9.019,-4.745Z" style="fill-rule:nonzero;"/><path d="M55.234,17.475l0.794,-0.111c2.465,-0.344 4.156,0.142 5.075,1.457c0.258,0.244 0.409,0.515 0.45,0.814l0.01,0.066c0.103,0.74 -0.806,1.657 -2.726,2.749l0.009,0.066c1.089,0.717 1.664,1.289 1.723,1.715l0.056,0.397c0.149,1.073 -2.965,3.132 -9.344,6.176l-1.343,0.525l-0.083,-0.056l0.064,-0.076l-0.027,-0.199c-0.226,0.032 -0.345,0.003 -0.357,-0.085l-0.103,-0.255l0.632,-0.358l-0.009,-0.067l-0.066,0.01l-0.849,0.253l-0.019,-0.132c0.303,-0.087 0.448,-0.175 0.436,-0.263l-0.067,0.009l-0.378,0.188l-0.075,-0.057l-0.067,0.009l-0.387,0.122l-0.066,0.009l-0.01,-0.066l0.105,-0.217l-0.009,-0.066l-0.066,0.009l-0.322,0.112l-0.075,-0.057l-0.01,-0.066c0.367,-0.416 0.695,-0.644 0.984,-0.684l-0.225,-0.643c0.245,-0.964 1.448,-3.655 3.609,-8.073c-0.833,0.117 -1.418,-0.027 -1.754,-0.429c-0.178,-0.025 -0.398,-0.312 -0.659,-0.86c-0.075,-0.534 0.874,-1.004 2.845,-1.409l2.304,-0.457Zm0.207,3.891c1.268,-0.647 2.33,-1.268 3.187,-1.862c-0.019,-0.132 -0.538,-0.127 -1.557,0.015l-0.926,0.13c-0.492,0.988 -0.726,1.56 -0.704,1.717Zm-2.631,5.845l0.009,0.066c2.159,-1.071 3.666,-2.048 4.521,-2.932l-1.257,0.176c-1.636,0.228 -2.433,0.497 -2.39,0.806l-0.883,1.884Z" style="fill-rule:nonzero;"/><path d="M68.612,15.127l0.074,-0.01c0.465,-0.065 0.998,0.318 1.599,1.148l0.084,0.063l0.046,0.331c0.029,0.211 -0.298,0.441 -0.983,0.692l0.01,0.066c1.27,1.191 1.987,2.373 2.151,3.544l0.047,0.338c0.405,2.901 -0.584,4.94 -2.968,6.117c-0.821,0.344 -1.511,0.556 -2.069,0.634l-0.779,0.109c-2.196,0.306 -3.933,-0.595 -5.211,-2.705c-0.142,-0.01 -0.291,-0.401 -0.449,-1.174l-0.067,-0.477c-0.304,-2.176 0.998,-4.371 3.906,-6.586c1.863,-1.224 3.399,-1.921 4.609,-2.09Zm-5.813,8.92l0.009,0.066c0.109,0.78 0.667,1.159 1.673,1.138l0.566,-0.079c1.524,-0.213 2.815,-1.285 3.874,-3.216c0.137,-0.489 0.192,-1.116 0.165,-1.882c-0.132,-0.621 -0.254,-0.993 -0.366,-1.117l0.038,-0.208c-0.222,-0.659 -0.362,-0.984 -0.421,-0.975c-1.36,0.379 -2.837,1.502 -4.43,3.368c-0.856,1.099 -1.225,2.067 -1.108,2.905Z" style="fill-rule:nonzero;"/><path d="M80.013,13.22l0.14,-0.019c0.206,-0.029 0.502,0.092 0.89,0.363l0.075,0.057l0.067,-0.01l-0.029,0.281l0.181,0.814c0.029,0.741 -0.17,1.141 -0.596,1.2l-0.412,0.058c-1.784,0.249 -3.93,1.176 -6.438,2.78l0.018,0.132l0.066,-0.009c3.351,-0.188 5.238,0.013 5.66,0.603c0.344,0.142 0.548,0.441 0.612,0.897c0.087,1.516 0.01,2.291 -0.23,2.325c-0.921,0.913 -1.975,1.687 -3.16,2.322c-1.787,0.904 -4.26,1.994 -7.419,3.269l-0.075,-0.057l-0.011,-0.073l0.45,-0.265l-0.019,-0.14l-0.73,0.244l-0.011,-0.073c-0.014,-0.103 0.089,-0.187 0.31,-0.253l-0.019,-0.133l-0.206,0.029l-0.019,-0.139l0.14,-0.02l-0.01,-0.066l-0.431,-0.082l0.057,-0.076l-0.029,-0.205c-0.181,0.025 -0.281,-0.031 -0.3,-0.168l-0.057,0.075l-0.14,0.02l-0.009,-0.067l0.057,-0.075l-0.009,-0.066l-0.133,0.018c-0.013,-0.093 -0.088,-0.13 -0.225,-0.111l-0.009,-0.066c-0.032,-0.23 1.723,-1.127 5.267,-2.691c2.331,-1.19 3.665,-1.956 4.002,-2.298c-3.911,0.287 -5.907,0.146 -5.986,-0.422c-0.497,-0.231 -0.785,-0.63 -0.864,-1.199c-0.074,-0.524 0.115,-1.177 0.565,-1.96c3.014,-2.743 6.02,-4.325 9.019,-4.744Z" style="fill-rule:nonzero;"/><path d="M87.988,12.107l0.14,-0.02c0.206,-0.029 0.502,0.092 0.89,0.363l0.075,0.057l0.067,-0.01l-0.029,0.282l0.181,0.814c0.029,0.74 -0.17,1.14 -0.596,1.2l-0.412,0.057c-1.784,0.249 -3.93,1.176 -6.438,2.78l0.018,0.132l0.066,-0.009c3.351,-0.188 5.238,0.013 5.66,0.604c0.344,0.141 0.548,0.44 0.612,0.896c0.087,1.516 0.01,2.291 -0.23,2.325c-0.921,0.913 -1.975,1.687 -3.16,2.322c-1.787,0.904 -4.26,1.994 -7.419,3.269l-0.075,-0.057l-0.011,-0.073l0.45,-0.265l-0.019,-0.14l-0.73,0.244l-0.011,-0.073c-0.014,-0.103 0.089,-0.187 0.31,-0.253l-0.019,-0.132l-0.206,0.028l-0.019,-0.139l0.14,-0.02l-0.01,-0.066l-0.431,-0.082l0.057,-0.075l-0.029,-0.206c-0.181,0.025 -0.281,-0.031 -0.3,-0.168l-0.057,0.075l-0.14,0.02l-0.009,-0.066l0.057,-0.076l-0.009,-0.066l-0.133,0.019c-0.013,-0.094 -0.088,-0.13 -0.225,-0.111l-0.009,-0.066c-0.032,-0.231 1.723,-1.128 5.266,-2.692c2.332,-1.19 3.666,-1.956 4.003,-2.297c-3.911,0.286 -5.907,0.145 -5.986,-0.423c-0.497,-0.231 -0.785,-0.63 -0.864,-1.198c-0.074,-0.525 0.115,-1.178 0.565,-1.96c3.014,-2.744 6.02,-4.326 9.019,-4.744Z" style="fill-rule:nonzero;"/></g><g><clipPath id="_clip2"><rect x="-2.212" y="8.684" width="95.136" height="18.455"/></clipPath><g clip-path="url(#_clip2)"><g><path d="M11.633,8.127l0.213,-0.029c1.234,-0.174 2.167,0.24 2.797,1.24c0.025,0.991 -0.069,1.501 -0.279,1.531l-0.074,0.01c-0.289,0.041 -0.796,-0.03 -1.521,-0.213l-1.409,0.055c-2.533,0.356 -4.52,1.7 -5.961,4.031c-0.603,1.114 -0.822,2.256 -0.658,3.427c0.092,0.652 0.625,0.909 1.6,0.772c0.588,-0.082 1.397,-0.386 2.428,-0.911l-0.009,-0.066l-0.074,0.011l-1.994,0.422c-0.018,-0.127 -0.227,-0.265 -0.628,-0.414l0.057,-0.075l-0.01,-0.074l-0.412,0.058l-0.019,-0.139l0.402,-0.124l-0.009,-0.066l-0.562,0.004l-0.02,-0.14l0.206,-0.029l-0.009,-0.066l-0.345,0.048l-0.011,-0.073l0.111,-0.226c-0.328,0.047 -0.499,0.023 -0.512,-0.07c-0.043,-0.309 2.719,-1.359 8.288,-3.151c0.534,-0.075 0.974,0.193 1.32,0.804l0.103,0.203c0.068,0.48 -0.187,1.035 -0.762,1.666c0.064,0.455 -0.965,1.547 -3.085,3.274c-1.003,0.755 -2.029,1.207 -3.077,1.354l-0.625,0.088c-2.082,0.292 -3.627,-0.58 -4.632,-2.617l-0.154,-0.615l-0.059,-0.419c-0.236,-1.676 0.779,-3.877 3.044,-6.603c1.738,-1.569 3.852,-2.528 6.341,-2.878Z" style="fill-rule:nonzero;"/><path d="M18.561,6.179l0.39,-0.054c1.195,0.256 1.84,0.723 1.935,1.399c-0.227,0.521 -1.059,3.149 -2.497,7.883l-0.393,0.992l4.02,-0.835l0.531,-0.007l0.39,-0.055l0.018,0.133l-0.191,0.026l0.028,0.199l0.389,-0.055l0.019,0.132l-0.609,0.416l0.187,0.371l0.39,-0.055l0.672,0.513c0.016,0.117 -1.237,0.535 -3.759,1.255c-1.056,0.373 -2.486,0.954 -4.289,1.742l-0.066,0.009c-0.24,0.034 -0.703,-0.258 -1.39,-0.876l-0.009,-0.067l0.058,-0.068l-0.076,-0.057l-0.092,-0.654c-0.031,-0.22 0.129,-0.51 0.478,-0.869c1.523,-4.096 2.551,-7.53 3.086,-10.304l-0.094,-0.189c0.2,-0.563 0.492,-0.871 0.874,-0.925Z" style="fill-rule:nonzero;"/><path d="M31.128,4.998l0.074,-0.01c0.465,-0.066 0.998,0.316 1.6,1.146l0.084,0.063l0.046,0.331c0.03,0.211 -0.298,0.442 -0.982,0.693l0.009,0.066c1.272,1.19 1.99,2.371 2.155,3.542l0.047,0.338c0.408,2.9 -0.58,4.94 -2.962,6.119c-0.821,0.346 -1.511,0.557 -2.069,0.636l-0.779,0.109c-2.195,0.309 -3.933,-0.591 -5.214,-2.699c-0.141,-0.01 -0.291,-0.402 -0.449,-1.174l-0.067,-0.477c-0.306,-2.176 0.994,-4.372 3.9,-6.589c1.861,-1.226 3.397,-1.924 4.607,-2.094Zm-5.805,8.925l0.009,0.066c0.109,0.779 0.667,1.158 1.674,1.136l0.565,-0.079c1.524,-0.214 2.815,-1.288 3.872,-3.22c0.136,-0.489 0.191,-1.116 0.163,-1.881c-0.132,-0.621 -0.255,-0.994 -0.367,-1.118l0.038,-0.208c-0.222,-0.658 -0.363,-0.983 -0.421,-0.975c-1.361,0.381 -2.837,1.506 -4.428,3.373c-0.855,1.099 -1.223,2.068 -1.105,2.906Z" style="fill-rule:nonzero;"/><path d="M42.528,3.081l0.139,-0.02c0.206,-0.029 0.503,0.092 0.891,0.362l0.075,0.057l0.066,-0.009l-0.028,0.281l0.182,0.814c0.029,0.74 -0.169,1.14 -0.596,1.2l-0.411,0.058c-1.784,0.251 -3.929,1.179 -6.436,2.786l0.018,0.132l0.067,-0.009c3.35,-0.191 5.237,0.008 5.66,0.598c0.344,0.142 0.549,0.44 0.613,0.896c0.088,1.516 0.012,2.292 -0.228,2.325c-0.921,0.914 -1.974,1.689 -3.158,2.325c-1.787,0.906 -4.259,1.998 -7.417,3.276l-0.075,-0.057l-0.011,-0.073l0.45,-0.266l-0.019,-0.14l-0.73,0.245l-0.011,-0.073c-0.014,-0.103 0.089,-0.187 0.309,-0.253l-0.018,-0.133l-0.206,0.029l-0.02,-0.139l0.14,-0.02l-0.009,-0.066l-0.431,-0.082l0.056,-0.075l-0.028,-0.206c-0.182,0.025 -0.282,-0.031 -0.301,-0.168l-0.057,0.076l-0.14,0.019l-0.009,-0.066l0.057,-0.075l-0.01,-0.066l-0.132,0.018c-0.013,-0.093 -0.088,-0.13 -0.225,-0.111l-0.01,-0.066c-0.032,-0.23 1.723,-1.129 5.265,-2.696c2.331,-1.192 3.664,-1.959 4.001,-2.301c-3.911,0.29 -5.907,0.151 -5.987,-0.417c-0.497,-0.23 -0.785,-0.629 -0.865,-1.198c-0.074,-0.524 0.114,-1.177 0.564,-1.96c3.011,-2.747 6.016,-4.331 9.015,-4.752Z" style="fill-rule:nonzero;"/><path d="M50.502,1.96l0.139,-0.019c0.206,-0.029 0.503,0.091 0.891,0.362l0.075,0.057l0.066,-0.01l-0.028,0.281l0.182,0.814c0.029,0.741 -0.169,1.141 -0.596,1.201l-0.411,0.058c-1.784,0.25 -3.929,1.179 -6.436,2.785l0.018,0.132l0.067,-0.009c3.35,-0.191 5.237,0.009 5.66,0.599c0.344,0.141 0.549,0.44 0.613,0.895c0.088,1.517 0.012,2.292 -0.228,2.326c-0.921,0.913 -1.974,1.688 -3.158,2.325c-1.787,0.905 -4.259,1.997 -7.417,3.275l-0.075,-0.057l-0.011,-0.073l0.45,-0.266l-0.019,-0.139l-0.73,0.245l-0.011,-0.074c-0.014,-0.103 0.089,-0.187 0.309,-0.253l-0.018,-0.132l-0.206,0.029l-0.02,-0.14l0.14,-0.02l-0.009,-0.066l-0.431,-0.082l0.056,-0.075l-0.028,-0.206c-0.182,0.026 -0.282,-0.03 -0.301,-0.167l-0.057,0.075l-0.14,0.02l-0.009,-0.066l0.057,-0.076l-0.01,-0.066l-0.132,0.019c-0.013,-0.094 -0.088,-0.13 -0.225,-0.111l-0.01,-0.066c-0.032,-0.231 1.723,-1.129 5.265,-2.696c2.331,-1.192 3.664,-1.959 4.001,-2.301c-3.911,0.29 -5.907,0.15 -5.987,-0.418c-0.497,-0.23 -0.785,-0.629 -0.865,-1.197c-0.074,-0.525 0.114,-1.178 0.564,-1.961c3.011,-2.746 6.016,-4.33 9.015,-4.752Z" style="fill-rule:nonzero;"/><path d="M54.521,2.19l0.794,-0.112c2.464,-0.346 4.156,0.138 5.075,1.453c0.259,0.243 0.41,0.514 0.452,0.813l0.009,0.066c0.104,0.74 -0.804,1.657 -2.723,2.751l0.009,0.067c1.09,0.716 1.665,1.287 1.725,1.713l0.055,0.397c0.151,1.073 -2.962,3.134 -9.338,6.184l-1.343,0.526l-0.082,-0.056l0.064,-0.076l-0.028,-0.199c-0.225,0.032 -0.344,0.004 -0.357,-0.085l-0.103,-0.255l0.632,-0.358l-0.01,-0.067l-0.066,0.01l-0.848,0.254l-0.019,-0.132c0.302,-0.088 0.447,-0.176 0.435,-0.264l-0.066,0.009l-0.378,0.188l-0.076,-0.056l-0.066,0.009l-0.388,0.122l-0.066,0.009l-0.009,-0.066l0.104,-0.217l-0.009,-0.066l-0.066,0.009l-0.321,0.113l-0.076,-0.057l-0.009,-0.066c0.366,-0.416 0.694,-0.645 0.983,-0.685l-0.225,-0.643c0.244,-0.964 1.444,-3.656 3.601,-8.076c-0.833,0.117 -1.417,-0.026 -1.754,-0.428c-0.178,-0.025 -0.398,-0.311 -0.66,-0.859c-0.075,-0.534 0.873,-1.005 2.844,-1.411l2.304,-0.459Zm0.209,3.89c1.268,-0.648 2.33,-1.269 3.186,-1.864c-0.019,-0.132 -0.537,-0.127 -1.557,0.016l-0.926,0.13c-0.49,0.989 -0.725,1.561 -0.703,1.718Zm-2.625,5.848l0.009,0.066c2.158,-1.073 3.664,-2.052 4.519,-2.936l-1.257,0.176c-1.636,0.23 -2.433,0.5 -2.389,0.808l-0.882,1.886Z" style="fill-rule:nonzero;"/><path d="M67.897,-0.17l0.073,-0.01c0.466,-0.065 0.999,0.317 1.6,1.147l0.084,0.063l0.047,0.331c0.029,0.21 -0.298,0.441 -0.982,0.692l0.009,0.066c1.272,1.191 1.99,2.371 2.154,3.542l0.048,0.338c0.407,2.901 -0.58,4.941 -2.962,6.12c-0.821,0.345 -1.511,0.557 -2.07,0.635l-0.779,0.11c-2.195,0.308 -3.932,-0.592 -5.213,-2.7c-0.141,-0.01 -0.291,-0.401 -0.45,-1.173l-0.067,-0.478c-0.305,-2.175 0.995,-4.372 3.901,-6.589c1.861,-1.226 3.397,-1.924 4.607,-2.094Zm-5.806,8.925l0.01,0.066c0.109,0.779 0.667,1.158 1.673,1.137l0.566,-0.08c1.524,-0.214 2.814,-1.287 3.872,-3.219c0.136,-0.489 0.19,-1.116 0.163,-1.882c-0.133,-0.621 -0.255,-0.993 -0.367,-1.118l0.038,-0.207c-0.222,-0.659 -0.363,-0.984 -0.422,-0.975c-1.36,0.381 -2.836,1.505 -4.427,3.372c-0.855,1.1 -1.223,2.068 -1.106,2.906Z" style="fill-rule:nonzero;"/><path d="M79.296,-2.087l0.14,-0.019c0.206,-0.029 0.503,0.092 0.89,0.362l0.076,0.057l0.066,-0.01l-0.028,0.282l0.182,0.813c0.029,0.741 -0.17,1.141 -0.596,1.201l-0.412,0.058c-1.783,0.25 -3.928,1.179 -6.436,2.785l0.019,0.133l0.066,-0.01c3.351,-0.191 5.238,0.009 5.66,0.599c0.345,0.141 0.549,0.44 0.613,0.896c0.088,1.516 0.013,2.291 -0.228,2.325c-0.92,0.914 -1.973,1.689 -3.158,2.325c-1.786,0.905 -4.258,1.997 -7.416,3.275l-0.076,-0.056l-0.01,-0.074l0.45,-0.265l-0.02,-0.14l-0.73,0.245l-0.01,-0.074c-0.014,-0.102 0.089,-0.187 0.309,-0.253l-0.018,-0.132l-0.206,0.029l-0.02,-0.14l0.14,-0.02l-0.01,-0.066l-0.431,-0.081l0.057,-0.076l-0.029,-0.206c-0.181,0.026 -0.281,-0.03 -0.301,-0.167l-0.056,0.075l-0.14,0.02l-0.009,-0.066l0.056,-0.076l-0.009,-0.066l-0.132,0.019c-0.013,-0.093 -0.088,-0.13 -0.226,-0.111l-0.009,-0.066c-0.032,-0.23 1.723,-1.129 5.265,-2.696c2.33,-1.192 3.664,-1.959 4.001,-2.301c-3.912,0.29 -5.907,0.151 -5.987,-0.418c-0.497,-0.23 -0.786,-0.629 -0.866,-1.197c-0.073,-0.524 0.115,-1.178 0.564,-1.961c3.012,-2.746 6.017,-4.33 9.015,-4.752Z" style="fill-rule:nonzero;"/><path d="M87.27,-3.207l0.14,-0.02c0.206,-0.029 0.503,0.092 0.89,0.362l0.076,0.057l0.066,-0.009l-0.028,0.281l0.182,0.814c0.029,0.74 -0.17,1.14 -0.596,1.2l-0.412,0.058c-1.783,0.251 -3.928,1.179 -6.436,2.786l0.019,0.132l0.066,-0.009c3.351,-0.191 5.238,0.008 5.66,0.598c0.345,0.142 0.549,0.44 0.613,0.896c0.088,1.516 0.013,2.291 -0.228,2.325c-0.92,0.914 -1.973,1.689 -3.158,2.325c-1.786,0.906 -4.258,1.998 -7.416,3.276l-0.076,-0.057l-0.01,-0.074l0.45,-0.265l-0.02,-0.14l-0.73,0.245l-0.01,-0.073c-0.014,-0.103 0.089,-0.188 0.309,-0.254l-0.018,-0.132l-0.206,0.029l-0.02,-0.14l0.14,-0.019l-0.009,-0.066l-0.432,-0.082l0.057,-0.076l-0.029,-0.205c-0.181,0.025 -0.281,-0.031 -0.301,-0.168l-0.056,0.076l-0.14,0.019l-0.009,-0.066l0.056,-0.075l-0.009,-0.067l-0.132,0.019c-0.013,-0.093 -0.088,-0.13 -0.226,-0.111l-0.009,-0.066c-0.032,-0.23 1.723,-1.129 5.265,-2.696c2.33,-1.192 3.664,-1.959 4.001,-2.301c-3.912,0.29 -5.907,0.151 -5.987,-0.417c-0.497,-0.23 -0.786,-0.63 -0.866,-1.198c-0.073,-0.524 0.115,-1.178 0.564,-1.96c3.012,-2.747 6.017,-4.331 9.015,-4.752Z" style="fill-rule:nonzero;"/></g></g></g><path d="M89.387,9.051l-0.5,0.498l-0.33,-0.003l-11.329,-0.091l-26.748,-0.209l-15.174,-0.115l-14.317,-0.104l-11.916,-0.079l-4.576,-0.026l-3.397,-0.014l-0.133,-0.134l0.133,-0.132l3.398,0.006l4.575,0.003l11.917,-0.004l14.317,-0.014l15.175,-0.02l26.748,-0.043l11.33,-0.02l0.33,-0.001l0.497,0.502Z"/><path d="M1.428,40.817l11.33,0.02l26.748,0.043l15.175,0.02l14.317,0.014l11.917,0.004l4.576,-0.002l3.397,-0.007l0.133,0.133l-0.132,0.133l-3.397,0.015l-4.576,0.026l-11.917,0.078l-14.316,0.104l-15.175,0.115l-26.747,0.21l-11.33,0.091l-0.329,0.002l-0.5,-0.498l0.497,-0.502l0.329,0.001Z"/></svg>