<?xml version="1.0" encoding="UTF-8" standalone="no"?><!DOCTYPE svg PUBLIC "-//W3C//DTD SVG 1.1//EN" "http://www.w3.org/Graphics/SVG/1.1/DTD/svg11.dtd"><svg width="100%" height="100%" viewBox="0 0 143 265" version="1.1" xmlns="http://www.w3.org/2000/svg" xmlns:xlink="http://www.w3.org/1999/xlink" xml:space="preserve" xmlns:serif="http://www.serif.com/" style="fill-rule:evenodd;clip-rule:evenodd;stroke-linejoin:round;stroke-miterlimit:1.41421;"><g><rect x="0" y="0.676" width="139.3" height="264.324" style="fill:#2d1355;fill-rule:nonzero;"/><path d="M128.001,102.588c0,31.422 -25.47,56.892 -56.89,56.892c-31.419,0 -56.888,-25.47 -56.888,-56.892c0,-31.417 25.469,-56.889 56.888,-56.889c31.42,0 56.89,25.472 56.89,56.889Z" style="fill:#2d1355;fill-rule:nonzero;"/><path d="M84.031,111.939l-2.654,-0.327c0.786,-6.388 0.021,-12.035 -2.273,-16.812c-2.684,1.535 -6.403,3.828 -10.537,6.864l-1.585,-2.155c4.906,-3.605 9.25,-6.192 12.029,-7.726l1.171,-0.647l0.644,1.173c3.05,5.524 4.13,12.127 3.205,19.63Z" style="fill:#fff;fill-rule:nonzero;"/><path d="M94.849,131.273l-1.988,-1.786c5.813,-6.463 8.814,-14.015 9.137,-23.042c-11.941,2.726 -22.349,7.459 -28.739,13.093l-1.769,-2.005c7.017,-6.191 18.533,-11.316 31.603,-14.067l1.608,-0.34l0,1.65c0,10.313 -3.312,19.23 -9.852,26.497Z" style="fill:#fff;fill-rule:nonzero;"/><path d="M64.125,151.275c-5.68,0 -10.83,-0.851 -14.411,-2.415l1.073,-2.452c3.766,1.643 9.555,2.419 15.878,2.133c11.098,-0.501 28.22,-7.006 32.276,-17.602c-15.372,1.732 -29.817,9.579 -30.938,10.625c-0.556,0.56 -1.163,1.072 -1.798,1.516l-1.536,-2.191c0.505,-0.353 0.991,-0.763 1.446,-1.221c1.638,-1.635 18.046,-10.307 34.583,-11.582l1.813,-0.14l-0.407,1.772c-3.254,14.21 -24.612,21.011 -35.32,21.496c-0.897,0.042 -1.783,0.061 -2.659,0.061Z" style="fill:#fff;fill-rule:nonzero;"/><path d="M23.192,111.931c-0.921,-7.491 0.16,-14.092 3.211,-19.622l0.644,-1.174l1.172,0.648c2.779,1.535 7.121,4.121 12.029,7.726l-1.584,2.155c-4.135,-3.034 -7.854,-5.329 -10.538,-6.864c-2.298,4.78 -3.064,10.426 -2.276,16.803l-2.658,0.328Z" style="fill:#fff;fill-rule:nonzero;"/><path d="M33.968,119.538c-3.577,-3.156 -8.308,-5.991 -14.061,-8.422l1.04,-2.464c6.019,2.545 10.997,5.529 14.793,8.881l-1.772,2.005Z" style="fill:#fff;fill-rule:nonzero;"/><path d="M53.615,79.876c-6.749,9.334 -16.976,24.073 -17.432,38.807c-0.291,9.494 2.543,18.268 7.582,23.464c2.913,3.005 6.32,4.595 9.85,4.595c3.528,0 6.937,-1.59 9.847,-4.595c5.039,-5.193 7.873,-13.967 7.582,-23.466c-0.454,-14.732 -10.68,-29.471 -17.429,-38.805Zm0,69.54c-4.274,0 -8.342,-1.87 -11.772,-5.407c-5.614,-5.79 -8.651,-15.054 -8.332,-25.411c0.5,-16.254 12.001,-32.11 18.875,-41.583l1.229,-1.694l1.23,1.694c6.873,9.473 18.372,25.329 18.873,41.583c0.317,10.358 -2.721,19.623 -8.336,25.414c-3.427,3.535 -7.498,5.404 -11.767,5.404Z" style="fill:#fff;fill-rule:nonzero;"/><path d="M71.111,52.727c-27.494,0 -49.862,22.37 -49.862,49.861c0,27.496 22.368,49.87 49.862,49.87c27.491,0 49.862,-22.374 49.862,-49.87c0,-27.491 -22.371,-49.861 -49.862,-49.861Zm0,102.405c-28.971,0 -52.54,-23.571 -52.54,-52.544c0,-28.967 23.569,-52.535 52.54,-52.535c28.969,0 52.539,23.568 52.539,52.535c0,28.973 -23.57,52.544 -52.539,52.544Z" style="fill:#fff;fill-rule:nonzero;"/><path d="M48.197,185.032c-1.571,1.54 -3.491,2.316 -5.762,2.316c-2.364,0 -4.341,-0.78 -5.933,-2.337c-1.592,-1.558 -2.386,-3.492 -2.386,-5.809c0,-2.202 0.799,-4.08 2.402,-5.638c1.605,-1.555 3.542,-2.333 5.812,-2.333c2.269,0 4.21,0.798 5.811,2.388c1.606,1.593 2.407,3.496 2.407,5.719c0,2.254 -0.785,4.144 -2.351,5.694Zm0.552,-12.005c-1.778,-1.73 -3.918,-2.597 -6.418,-2.599c-2.503,0.002 -4.639,0.869 -6.417,2.599c-1.778,1.731 -2.67,3.824 -2.67,6.279c0,2.484 0.892,4.574 2.67,6.28c1.779,1.708 3.957,2.565 6.528,2.565c3.672,0 6.374,-1.616 8.106,-4.845l0,4.421l0.867,0l0,-8.421c0,-2.455 -0.89,-4.548 -2.666,-6.279Z" style="fill:#56437b;fill-rule:nonzero;"/><path d="M82.923,171.231c-2.226,0 -4.114,0.778 -5.673,2.333c-1.559,1.558 -2.336,3.436 -2.336,5.638c0,2.27 0.776,4.196 2.317,5.777c1.549,1.575 3.431,2.369 5.658,2.369c2.203,0 4.086,-0.794 5.657,-2.369c1.566,-1.581 2.351,-3.484 2.351,-5.702c0,-2.255 -0.772,-4.155 -2.316,-5.713c-1.549,-1.555 -3.434,-2.333 -5.658,-2.333Zm-0.075,-0.803c2.507,0 4.623,0.858 6.357,2.562c1.729,1.708 2.593,3.802 2.593,6.287c0,2.426 -0.879,4.516 -2.633,6.258c-1.754,1.74 -3.856,2.616 -6.317,2.616c-2.427,0 -4.506,-0.864 -6.224,-2.599c-1.718,-1.733 -2.58,-3.834 -2.58,-6.318c0,-2.431 0.862,-4.504 2.58,-6.223c1.718,-1.723 3.797,-2.583 6.224,-2.583Z" style="fill:#56437b;fill-rule:nonzero;"/><rect x="94.667" y="164.231" width="0.865" height="23.499" style="fill:#56437b;fill-rule:nonzero;"/><path d="M99.39,178.585l15.116,0c-0.159,-2.068 -0.972,-3.809 -2.436,-5.223c-1.46,-1.421 -3.161,-2.131 -5.104,-2.131c-1.988,0 -3.693,0.694 -5.107,2.079c-1.413,1.378 -2.238,3.142 -2.469,5.275Zm16.133,0.796l-16.133,0c0.09,1.756 0.536,3.231 1.331,4.423c1.567,2.363 3.671,3.544 6.313,3.544c1.382,0 2.67,-0.408 3.86,-1.216c1.195,-0.803 2.116,-1.885 2.775,-3.242l1.051,0c-0.681,1.616 -1.712,2.892 -3.104,3.835c-1.392,0.95 -2.919,1.426 -4.582,1.426c-2.34,0 -4.361,-0.896 -6.076,-2.686c-1.71,-1.791 -2.567,-3.899 -2.567,-6.336c0,-2.406 0.831,-4.463 2.499,-6.156c1.666,-1.697 3.678,-2.545 6.043,-2.545c2.291,0 4.295,0.853 6.015,2.547c1.719,1.7 2.575,3.681 2.575,5.954l0,0.452Z" style="fill:#56437b;fill-rule:nonzero;"/><path d="M117.489,170.844l5.016,7.584l5.088,-7.584l1.053,0l-5.581,8.433l5.581,8.453l-1.053,0l-5.088,-7.617l-5.016,7.617l-1.123,0l5.614,-8.453l-5.614,-8.433l1.123,0Z" style="fill:#56437b;fill-rule:nonzero;"/><path d="M28.554,172.851c-1.616,-1.612 -3.65,-2.423 -6.013,-2.423c-2.361,0 -4.374,0.811 -5.988,2.423c-1.238,1.237 -1.862,3.099 -1.862,5.581l0,9.298l0.871,0l0,-9.302c0,-2.177 0.639,-3.92 1.913,-5.23c1.278,-1.313 2.97,-1.967 5.079,-1.967c2.106,0 3.8,0.654 5.075,1.967c1.275,1.31 1.915,3.053 1.915,5.23l0,9.302l0.87,0l0,-9.298c0,-2.482 -0.621,-4.344 -1.86,-5.581Z" style="fill:#56437b;fill-rule:nonzero;"/><path d="M69.352,172.851c-1.612,-1.612 -3.648,-2.423 -6.01,-2.423c-2.363,0 -4.374,0.811 -5.988,2.423c-1.242,1.237 -1.858,3.099 -1.858,5.581l0,9.298l0.866,0l0,-9.302c0,-2.177 0.639,-3.92 1.914,-5.23c1.277,-1.313 2.97,-1.967 5.076,-1.967c2.108,0 3.803,0.654 5.078,1.967c1.275,1.31 1.914,3.053 1.914,5.23l0,9.302l0.867,0l0,-9.298c0,-2.482 -0.619,-4.344 -1.859,-5.581Z" style="fill:#56437b;fill-rule:nonzero;"/><rect x="139.3" y="0.676" width="2.701" height="264.323" style="fill:#56437b;fill-rule:nonzero;"/><path d="M31.341,213.97c1.012,2.501 3.541,4.216 6.211,4.216c0.786,0 2.866,-0.197 4.58,-1.8c1.349,-1.236 2.136,-3.062 2.136,-4.917c0,-0.477 -0.057,-1.601 -0.59,-2.782c-1.069,-2.444 -3.485,-3.99 -6.126,-3.99c-0.759,0 -2.642,0.169 -4.299,1.602c-1.35,1.179 -2.249,2.951 -2.361,4.777c-0.029,0.477 -0.029,1.63 0.449,2.894Zm-0.393,-9.667l0,3.992c0.253,-0.563 0.534,-1.154 0.899,-1.631c0.675,-0.815 2.697,-2.697 5.76,-2.697c0.788,0 2.839,0.168 4.666,1.601c1.742,1.349 2.837,3.598 2.837,5.817c0,0.534 -0.055,1.798 -0.673,3.147c-1.209,2.67 -3.907,4.384 -6.745,4.384c-2.81,0 -4.805,-1.574 -5.48,-2.304c-0.533,-0.534 -0.871,-1.152 -1.236,-1.826l0,9.244l-0.871,0l0,-19.727l0.843,0Z" style="fill:#fff;fill-rule:nonzero;"/><path d="M48.314,213.97c1.011,2.501 3.541,4.216 6.21,4.216c0.787,0 2.866,-0.197 4.58,-1.8c1.349,-1.236 2.136,-3.062 2.136,-4.917c0,-0.477 -0.056,-1.601 -0.591,-2.782c-1.067,-2.444 -3.483,-3.99 -6.125,-3.99c-0.759,0 -2.642,0.169 -4.299,1.602c-1.349,1.179 -2.249,2.951 -2.361,4.777c-0.028,0.477 -0.028,1.63 0.45,2.894Zm-0.394,-9.667l0,3.992c0.253,-0.563 0.534,-1.154 0.899,-1.631c0.674,-0.815 2.698,-2.697 5.761,-2.697c0.787,0 2.839,0.168 4.665,1.601c1.742,1.349 2.838,3.598 2.838,5.817c0,0.534 -0.056,1.798 -0.674,3.147c-1.209,2.67 -3.906,4.384 -6.744,4.384c-2.81,0 -4.806,-1.574 -5.48,-2.304c-0.534,-0.534 -0.871,-1.152 -1.237,-1.826l0,9.244l-0.871,0l0,-19.727l0.843,0Z" style="fill:#fff;fill-rule:nonzero;"/><path d="M64.864,204.276l0,3.344c0.477,-1.208 0.786,-1.63 1.264,-2.108c0.422,-0.393 0.815,-0.646 1.012,-0.758c0.675,-0.422 1.152,-0.563 2.641,-0.731l-0.028,0.786c-0.562,0.085 -1.236,0.141 -1.742,0.337c-1.153,0.422 -2.388,1.715 -2.81,2.895c-0.141,0.393 -0.225,0.843 -0.281,1.77l0,8.684l-0.815,0l0,-14.219l0.759,0Z" style="fill:#fff;fill-rule:nonzero;"/><path d="M72.254,215.853c1.799,2.079 4.188,2.361 5.143,2.361c1.32,0 2.389,-0.422 2.81,-0.619c2.304,-1.095 3.878,-3.512 3.878,-6.126c0,-0.505 -0.056,-1.658 -0.647,-2.922c-1.096,-2.304 -3.512,-3.793 -6.013,-3.793c-1.798,0 -3.681,0.814 -4.918,2.135c-0.562,0.589 -1.686,2.023 -1.798,4.299c-0.084,1.715 0.478,3.372 1.545,4.665Zm-1.601,-7.531c1.265,-2.698 3.934,-4.327 6.828,-4.327c2.613,0 4.356,1.405 5.002,2.051c1.489,1.405 2.36,3.457 2.36,5.536c0,1.405 -0.477,2.556 -0.702,3.007c-1.264,2.725 -3.878,4.355 -6.772,4.355c-0.927,0 -3.063,-0.169 -4.946,-1.883c-1.686,-1.489 -2.613,-3.794 -2.473,-6.069c0.056,-0.9 0.309,-1.883 0.703,-2.67Z" style="fill:#fff;fill-rule:nonzero;"/><path d="M96.926,204.247l0.787,0.113l-5.901,14.107l-1.039,0l-5.733,-14.22l0.871,0l5.424,13.461l5.591,-13.461Z" style="fill:#fff;fill-rule:nonzero;"/><path d="M112.213,210.738c-0.028,-0.195 -0.196,-1.292 -0.563,-2.078c-1.039,-2.333 -3.568,-3.879 -6.069,-3.879c-0.422,0 -0.927,0 -1.799,0.226c-0.898,0.252 -3.034,1.039 -4.215,3.399c-0.533,1.04 -0.646,1.883 -0.731,2.332l13.377,0Zm-13.377,0.76c0.057,1.011 0.141,1.432 0.282,1.938c0.814,2.782 3.457,4.721 6.378,4.721c0.984,0 3.317,-0.225 5.143,-2.332c0.366,-0.394 0.507,-0.646 1.068,-1.489l0.759,0c-0.563,1.208 -0.984,1.91 -1.995,2.782c-1.377,1.151 -3.119,1.826 -4.918,1.826c-0.815,0 -2.922,-0.169 -4.805,-1.714c-1.743,-1.405 -2.726,-3.569 -2.726,-5.817c0,-0.562 0.056,-1.63 0.618,-2.922c1.237,-2.754 3.991,-4.496 6.941,-4.496c2.866,0 5.592,1.798 6.773,4.384c0.59,1.32 0.674,2.613 0.73,3.119l-14.248,0Z" style="fill:#fff;fill-rule:nonzero;"/><path d="M116.063,214.222c1.04,2.474 3.512,3.964 6.154,3.964c1.377,0 2.36,-0.394 2.838,-0.618c2.304,-1.068 3.822,-3.514 3.822,-6.127c0,-0.534 -0.057,-1.658 -0.62,-2.866c-1.095,-2.332 -3.511,-3.821 -6.04,-3.821c-1.124,0 -1.94,0.28 -2.361,0.421c-2.529,0.927 -4.214,3.147 -4.355,5.929c-0.028,0.562 -0.028,1.771 0.562,3.118Zm12.87,-15.398l0.729,0l0,19.782l-0.842,0l0.113,-4.046c-0.254,0.534 -0.506,1.04 -0.843,1.518c-1.349,1.827 -3.793,2.866 -5.985,2.866c-0.873,0 -3.036,-0.196 -4.918,-1.883c-1.545,-1.404 -2.5,-3.512 -2.5,-5.62c0,-1.714 0.617,-3.372 1.657,-4.664c2.023,-2.501 4.834,-2.81 5.873,-2.81c0.337,0 0.927,0.028 1.742,0.251c1.208,0.31 2.642,1.069 3.513,1.968c0.729,0.76 1.32,1.939 1.461,2.193l0,-9.555Z" style="fill:#fff;fill-rule:nonzero;"/><path d="M13.976,247.943c1.04,2.473 3.512,3.962 6.154,3.962c1.377,0 2.36,-0.394 2.838,-0.618c2.305,-1.068 3.822,-3.513 3.822,-6.126c0,-0.534 -0.057,-1.657 -0.619,-2.866c-1.096,-2.332 -3.512,-3.822 -6.041,-3.822c-1.124,0 -1.939,0.281 -2.36,0.422c-2.53,0.927 -4.216,3.147 -4.356,5.929c-0.028,0.562 -0.028,1.77 0.562,3.119Zm12.87,-15.398l0.73,0l0,19.782l-0.843,0l0.113,-4.046c-0.253,0.533 -0.506,1.039 -0.843,1.517c-1.349,1.827 -3.793,2.866 -5.985,2.866c-0.872,0 -3.036,-0.196 -4.918,-1.883c-1.546,-1.404 -2.501,-3.512 -2.501,-5.62c0,-1.714 0.618,-3.371 1.658,-4.664c2.023,-2.501 4.833,-2.81 5.873,-2.81c0.337,0 0.927,0.028 1.742,0.252c1.209,0.309 2.642,1.069 3.513,1.968c0.73,0.759 1.32,1.937 1.461,2.191l0,-9.553Z" style="fill:#fff;fill-rule:nonzero;"/><path d="M43.762,244.459c-0.028,-0.197 -0.197,-1.292 -0.562,-2.079c-1.04,-2.332 -3.569,-3.878 -6.07,-3.878c-0.421,0 -0.927,0 -1.798,0.224c-0.899,0.253 -3.035,1.04 -4.216,3.401c-0.533,1.04 -0.646,1.882 -0.73,2.332l13.376,0Zm-13.376,0.758c0.056,1.012 0.14,1.433 0.281,1.939c0.815,2.782 3.456,4.722 6.378,4.722c0.984,0 3.317,-0.226 5.143,-2.332c0.366,-0.394 0.506,-0.648 1.068,-1.491l0.759,0c-0.562,1.209 -0.984,1.912 -1.995,2.783c-1.377,1.152 -3.12,1.826 -4.918,1.826c-0.815,0 -2.922,-0.168 -4.805,-1.714c-1.743,-1.404 -2.726,-3.568 -2.726,-5.817c0,-0.561 0.056,-1.629 0.619,-2.922c1.235,-2.754 3.99,-4.496 6.94,-4.496c2.867,0 5.592,1.798 6.772,4.383c0.591,1.321 0.675,2.615 0.731,3.119l-14.247,0Z" style="fill:#fff;fill-rule:nonzero;"/><path d="M48.286,232.545l0.842,0l0,5.394l3.653,0l0,0.787l-3.653,0l0,13.46l-0.814,0l0,-13.46l-3.12,0l0,-0.759l3.092,0l0,-5.422Z" style="fill:#fff;fill-rule:nonzero;"/><path d="M71.327,238.051l0,14.192l-0.758,0l0,-14.192l0.758,0Zm0,-5.479l0,2.333l-0.787,0l0,-2.333l0.787,0Z" style="fill:#fff;fill-rule:nonzero;"/><rect x="74.052" y="232.572" width="0.787" height="19.671" style="fill:#fff;fill-rule:nonzero;"/><path d="M91.166,244.459c-0.029,-0.197 -0.197,-1.292 -0.563,-2.079c-1.039,-2.332 -3.568,-3.878 -6.069,-3.878c-0.422,0 -0.927,0 -1.799,0.224c-0.899,0.253 -3.034,1.04 -4.215,3.401c-0.533,1.04 -0.645,1.882 -0.73,2.332l13.376,0Zm-13.376,0.758c0.056,1.012 0.14,1.433 0.281,1.939c0.814,2.782 3.457,4.722 6.379,4.722c0.983,0 3.316,-0.226 5.142,-2.332c0.366,-0.394 0.506,-0.648 1.068,-1.491l0.759,0c-0.562,1.209 -0.984,1.912 -1.995,2.783c-1.378,1.152 -3.12,1.826 -4.919,1.826c-0.814,0 -2.921,-0.168 -4.804,-1.714c-1.742,-1.404 -2.726,-3.568 -2.726,-5.817c0,-0.561 0.056,-1.629 0.618,-2.922c1.237,-2.754 3.991,-4.496 6.941,-4.496c2.866,0 5.592,1.798 6.772,4.383c0.591,1.321 0.675,2.615 0.731,3.119l-14.247,0Z" style="fill:#fff;fill-rule:nonzero;"/><path d="M94.706,237.996l0,3.344c0.478,-1.208 0.787,-1.63 1.264,-2.108c0.423,-0.393 0.816,-0.646 1.012,-0.759c0.675,-0.422 1.153,-0.561 2.642,-0.73l-0.029,0.786c-0.561,0.086 -1.236,0.141 -1.742,0.338c-1.152,0.422 -2.388,1.714 -2.809,2.894c-0.141,0.393 -0.225,0.843 -0.282,1.771l0,8.683l-0.814,0l0,-14.219l0.758,0Z" style="fill:#fff;fill-rule:nonzero;"/><path d="M24.925,216.371c-1.31,1.287 -2.91,1.934 -4.81,1.934c-1.971,0 -3.622,-0.65 -4.952,-1.949c-1.329,-1.298 -1.991,-2.914 -1.991,-4.848c0,-1.838 0.667,-3.405 2.007,-4.704c1.337,-1.299 2.955,-1.949 4.852,-1.949c1.893,0 3.51,0.665 4.85,1.991c1.337,1.33 2.008,2.923 2.008,4.78c0,1.873 -0.656,3.455 -1.964,4.745Zm0.46,-10.018c-1.481,-1.443 -3.268,-2.166 -5.355,-2.167c-2.089,0.001 -3.875,0.724 -5.356,2.167c-1.485,1.447 -2.227,3.191 -2.227,5.242c0,2.071 0.742,3.818 2.227,5.244c1.482,1.424 3.298,2.136 5.449,2.136c3.063,0 5.319,-1.346 6.766,-4.042l0,3.692l0.725,0l0,-7.03c0,-2.051 -0.742,-3.795 -2.229,-5.242Z" style="fill:#fff;fill-rule:nonzero;"/><path d="M65.238,249.99c-1.31,1.287 -2.91,1.935 -4.809,1.935c-1.972,0 -3.623,-0.651 -4.953,-1.95c-1.329,-1.298 -1.992,-2.914 -1.992,-4.848c0,-1.838 0.668,-3.405 2.008,-4.703c1.337,-1.301 2.955,-1.951 4.853,-1.951c1.892,0 3.509,0.666 4.85,1.993c1.337,1.33 2.007,2.922 2.007,4.778c0,1.874 -0.656,3.456 -1.964,4.746Zm0.459,-10.018c-1.48,-1.444 -3.266,-2.166 -5.354,-2.167c-2.089,0.001 -3.876,0.723 -5.356,2.167c-1.485,1.447 -2.227,3.191 -2.227,5.243c0,2.069 0.742,3.817 2.227,5.243c1.481,1.424 3.298,2.136 5.449,2.136c3.063,0 5.319,-1.346 6.766,-4.042l0,3.692l0.724,0l0,-7.029c0,-2.052 -0.742,-3.796 -2.229,-5.243Z" style="fill:#fff;fill-rule:nonzero;"/></g></svg>